<svg xmlns="http://www.w3.org/2000/svg" data-name="S_Flag_18_N@2x" height="36" id="S_Flag_18_N_2x" viewBox="0 0 36 36" width="36">
  <defs>
    <style>
      .fill {
        fill: #707070;
      }

      
    </style>
  </defs>
  <path class="fill" d="M28.583,5.854a19.038,19.038,0,0,0-4.113.453,1.093,1.093,0,0,1-1.3-1.084V3.609a1.087,1.087,0,0,0-.815-1.061A19.492,19.492,0,0,0,17.75,2,19.154,19.154,0,0,0,8,4.648V19.813a19.1,19.1,0,0,1,9.76-2.646,1.1,1.1,0,0,1,1.073,1.1v3.739a.991.991,0,0,0,1.406.908,19.279,19.279,0,0,1,12.515-1.435A1.007,1.007,0,0,0,34,20.511V7.4a1,1,0,0,0-.751-.98A19.44,19.44,0,0,0,28.583,5.854Z" />
  <rect class="fill" height="34" rx="0.5" ry="0.5" width="4" x="2" y="2" />
  </svg>